<svg xmlns="http://www.w3.org/2000/svg" viewBox="0 0 219 218.51"><defs><style>.cls-1{fill:#422439;}</style></defs><g id="Layer_2" data-name="Layer 2"><g id="Menu"><g id="LogOut"><path class="cls-1" d="M17.11,18.9v181C34.74,196.4,52,193,69.28,189.58c17.62-3.51,35.2-7.18,52.84-10.55,3.25-.62,4.48-1.74,4.38-5.1-.22-7.29-.11-14.6,0-21.9,0-5.54,2.87-8.72,7.77-8.92a8.26,8.26,0,0,1,8.95,8.49c.18,11,.15,21.9,0,32.85-.06,5.09-2.77,8.06-8.15,9.13Q82,204.17,28.87,214.67c-5.82,1.16-11.64,2.31-17.45,3.54C4.78,219.62,0,215.92,0,209Q0,109.21,0,9.42C0,2.23,4.64-1.11,11.84.33Q70.49,12.06,129.16,23.66c1.94.39,3.89.7,5.82,1.13,5.73,1.27,8.2,4.22,8.23,10.09q.1,15.43,0,30.86c0,5.85-3.38,9.52-8.44,9.54-5.4,0-8.3-3.2-8.33-9.38,0-7.3-.11-14.6,0-21.9.06-2.59-.72-4-3.35-4.48Q70.54,29.15,18,18.7C17.81,18.67,17.63,18.77,17.11,18.9Z"/><path class="cls-1" d="M190,117.55H87.06c-4.43,0-8.67-.26-10.63-5.36-1.81-4.73.48-9.7,5.43-10.84a28.64,28.64,0,0,1,6.42-.48c31.5,0,101,0,101.31,0-1.42-1.75-2.1-2.77-3-3.62-7.71-7.75-15.48-15.45-23.18-23.22-4.2-4.23-4.45-9-.79-12.64s8.34-3.47,12.64.81q20.1,20,40.09,40.08c4.76,4.79,4.81,9,.12,13.76q-20.16,20.28-40.44,40.44c-4.3,4.28-9,4.54-12.72.92-3.34-3.28-3-8.83.91-12.78,7.47-7.54,15-15,22.48-22.53C186.89,120.92,188,119.71,190,117.55Z"/></g></g></g></svg>