<svg xmlns="http://www.w3.org/2000/svg" viewBox="0 0 189.33 168.09"><defs><style>.cls-1{fill:#fff6eb;}</style></defs><g id="Layer_2" data-name="Layer 2"><g id="Menu"><g id="Lock"><path class="cls-1" d="M119.13,168.06c-11.64,0-23.29.1-34.93,0-15.26-.17-23.5-7.88-23.77-23.06-.36-20.28-.22-40.57,0-60.84,0-3,1-7.12,3-8.89,20.33-17.35,33.12-39.32,41.35-64.4C107,4.27,111.26-1,119.29.17c6.63,1,11.16,9.53,11.79,16.66,1.22,13.7-1.18,26.55-5.72,39.31-2.37,6.65,2.56,7.78,7.34,7.87,12.23.22,24.48.27,36.72,0,13.39-.25,21.5,7.8,19.65,21.1-2,14.68-5,29.22-7.58,43.83-1,5.85-1.92,11.71-2.84,17.58-2.41,15.26-9.31,21.36-24.58,21.49C142.43,168.13,130.78,168.06,119.13,168.06Z"/><path class="cls-1" d="M47.67,122.28c0,11,.44,22.12-.25,33.12-.22,3.64-2.74,9.56-5.24,10.16-6.46,1.55-14.29,2.2-17.71-6-2.87-6.87-4.93-14.08-7.27-21.17C11.78,121.92,6.61,105.4,1,89.06c-2.56-7.38.15-11.42,7.17-11.86,10.41-.66,20.9-.38,31.35-.23,6,.09,8.23,3.81,8.19,9.48-.08,11.94,0,23.88,0,35.83Z"/></g></g></g></svg>